<svg width="149" height="149">
  <g class="currentLayer">
    <path d="M125.34285721182823,1.5248090624809265 c-3.200000047683716,2.2000000327825546 -3.0000000447034836,7.800000116229057 0.4000000059604648,10.000000149011612 c5.100000075995922,3.400000050663948 11.400000169873238,-1.8000000268220901 9.300000138580799,-7.500000111758709 c-1.700000025331974,-4.400000065565109 -5.600000083446503,-5.4000000804662704 -9.700000144541264,-2.500000037252903 z" id="svg_3" fill="#ffffff" fill-opacity="1" class=""/>
    <path d="M142.5428574681282,12.124809220433235 c-4.400000065565109,7.500000111758709 -5.800000086426735,8.800000131130219 -9.80000014603138,8.800000131130219 c-2.1000000312924385,0 -3.7000000551342964,-0.9000000134110454 -5.500000081956387,-3.1000000461935997 l-2.600000038743019,-3.1000000461935997 l-10.000000149011612,1.2000000178813934 c-5.500000081956387,0.7000000104308134 -10.700000159442425,1.600000023841858 -11.500000171363354,2.0000000298023224 c-2.0000000298023224,1.1000000163912773 -8.400000125169754,16.50000024586916 -7.600000113248825,18.500000275671482 c1.0000000149011612,2.600000038743019 2.500000037252903,1.600000023841858 5.500000081956387,-3.8000000566244125 c4.90000007301569,-8.800000131130219 5.900000087916851,-9.700000144541264 9.600000143051147,-9.700000144541264 c4.6000000685453415,0 4.500000067055225,1.4000000208616257 -0.5000000074505809,9.600000143051147 c-6.600000098347664,10.900000162422657 -5.300000078976154,13.40000019967556 7.000000104308128,13.40000019967556 c5.000000074505806,0 7.200000107288361,0.4000000059604648 7.600000113248825,1.3000000193715096 c0.30000000447034836,0.800000011920929 -1.600000023841858,4.800000071525574 -4.100000061094761,9.100000135600567 c-2.500000037252903,4.200000062584877 -4.500000067055225,8.400000125169754 -4.500000067055225,9.400000140070915 c0,2.600000038743019 1.600000023841858,4.6000000685453415 3.200000047683716,3.9000000581145287 c1.5000000223517418,-0.5000000074505809 14.600000217556953,-22.300000332295895 15.500000230967999,-25.700000382959843 c0.6000000089406967,-2.400000035762787 -2.8000000417232513,-4.700000070035458 -8.300000123679638,-5.600000083446503 c-6.70000009983778,-1.0000000149011612 -7.200000107288361,-1.8000000268220901 -4.800000071525574,-6.100000090897083 c2.1000000312924385,-3.7000000551342964 2.400000035762787,-3.8000000566244125 10.200000151991844,-4.800000071525574 c4.300000064074993,-0.6000000089406967 8.600000128149986,-1.5000000223517418 9.400000140070915,-2.2000000327825546 c2.1000000312924385,-1.8000000268220901 8.100000120699406,-16.100000239908695 7.400000110268593,-17.80000026524067 c-1.0000000149011612,-2.7000000402331352 -2.400000035762787,-1.600000023841858 -6.200000092387199,4.700000070035458 z" id="svg_4" fill="#ffffff" fill-opacity="1" class=""/>
    <path d="M102.34285686910152,46.124809727072716 c-1.0000000149011612,1.3000000193715096 -13.000000193715096,21.40000031888485 -25.700000382959843,43.10000064224005 c-3.7000000551342964,6.500000096857548 -7.300000108778477,11.60000017285347 -7.900000117719173,11.400000169873238 c-0.6000000089406967,-0.20000000298023224 -4.100000061094761,-5.200000077486038 -7.700000114738941,-11.10000016540289 c-3.600000053644181,-5.900000087916851 -7.200000107288361,-11.200000166893005 -8.00000011920929,-11.700000174343586 c-0.800000011920929,-0.5000000074505809 -6.200000092387199,-0.9000000134110454 -12.000000178813934,-0.9000000134110454 c-7.300000108778477,0 -11.000000163912773,-0.4000000059604648 -11.60000017285347,-1.3000000193715096 c-0.6000000089406967,-0.6000000089406967 -2.3000000342726707,-5.900000087916851 -3.7000000551342964,-11.700000174343586 c-1.5000000223517418,-5.800000086426735 -3.200000047683716,-12.200000181794167 -3.7000000551342964,-14.300000213086605 c-0.800000011920929,-3.0000000447034836 -1.4000000208616257,-3.7000000551342964 -3.500000052154064,-3.7000000551342964 c-1.8000000268220901,0 -2.7000000402331352,0.800000011920929 -3.500000052154064,2.7000000402331352 c-0.800000011920929,2.3000000342726707 -0.4000000059604648,5.200000077486038 2.2000000327825546,15.300000227987766 c1.8000000268220901,6.900000102818012 3.8000000566244125,13.700000204145908 4.6000000685453415,15.20000022649765 c2.1000000312924385,4.400000065565109 6.100000090897083,5.800000086426735 16.00000023841858,5.800000086426735 c4.800000071525574,0.10000000149011612 10.000000149011612,0.6000000089406967 11.60000017285347,1.3000000193715096 c1.9000000283122063,0.800000011920929 4.700000070035458,4.500000067055225 9.00000013411045,11.700000174343586 c7.300000108778477,12.200000181794167 10.100000150501728,14.100000210106373 14.100000210106373,10.000000149011612 c1.2000000178813934,-1.4000000208616257 6.500000096857548,-9.700000144541264 11.700000174343586,-18.500000275671482 c5.100000075995922,-8.800000131130219 12.600000187754631,-21.600000321865082 16.600000247359276,-28.400000423192978 c5.800000086426735,-10.000000149011612 7.000000104308128,-12.700000189244747 6.200000092387199,-14.200000211596489 c-1.1000000163912773,-2.2000000327825546 -3.200000047683716,-2.500000037252903 -4.700000070035458,-0.7000000104308134 z" id="svg_5" fill="#ffffff" fill-opacity="1" class=""/>
    <path d="M9.44285548478365,78.3248102068901 c-12.700000189244747,14.400000214576721 -8.00000011920929,36.500000543892384 9.700000144541264,45.70000068098307 c6.600000098347664,3.500000052154064 18.500000275671482,3.300000049173832 25.600000381469727,-0.30000000447034836 c5.800000086426735,-3.0000000447034836 11.700000174343586,-9.100000135600567 13.90000020712614,-14.500000216066837 c1.4000000208616257,-3.200000047683716 1.4000000208616257,-3.9000000581145287 0.10000000149011612,-5.100000075995922 c-2.1000000312924385,-2.1000000312924385 -4.200000062584877,-0.9000000134110454 -6.500000096857548,3.600000053644181 c-3.0000000447034836,5.900000087916851 -9.400000140070915,10.900000162422657 -15.600000232458115,12.300000183284283 c-21.600000321865082,4.800000071525574 -37.200000554323196,-21.500000320374966 -22.300000332295895,-37.70000056177378 c4.200000062584877,-4.6000000685453415 4.700000070035458,-7.700000114738941 1.2000000178813934,-8.200000122189522 c-1.5000000223517418,-0.20000000298023224 -3.400000050663948,1.1000000163912773 -6.100000090897083,4.200000062584877 z" id="svg_6" fill="#ffffff" fill-opacity="1" class=""/>
  </g>
</svg>
