<?xml version="1.0" standalone="no"?>
<!DOCTYPE svg PUBLIC "-//W3C//DTD SVG 20010904//EN"
 "http://www.w3.org/TR/2001/REC-SVG-20010904/DTD/svg10.dtd">
<svg version="1.0" xmlns="http://www.w3.org/2000/svg"
 width="260.000000pt" height="260.000000pt" viewBox="0 0 260.000000 260.000000"
 preserveAspectRatio="xMidYMid meet">
<metadata>
Created by potrace 1.11, written by Peter Selinger 2001-2013
</metadata>
<g transform="translate(0.000000,260.000000) scale(0.100000,-0.100000)"
fill="#000000" stroke="none">
<path d="M1250 2323 c-105 -18 -213 -65 -334 -146 -35 -23 -92 -58 -127 -77
-114 -63 -227 -186 -293 -317 -97 -194 -95 -452 4 -658 64 -132 177 -249 315
-326 33 -18 80 -48 105 -67 69 -52 196 -109 282 -126 407 -83 786 153 889 553
10 41 18 95 18 120 -2 42 -2 40 -9 -19 -56 -469 -564 -760 -1000 -572 l-45 19
130 6 c185 8 278 37 432 138 45 30 109 69 141 87 32 18 78 51 103 73 49 45 35
42 -26 -6 -57 -45 -96 -68 -103 -61 -3 4 0 12 6 18 7 7 12 16 12 21 0 5 -20
-11 -44 -36 -56 -56 -130 -78 -279 -85 -134 -6 -215 12 -346 75 -161 77 -302
236 -361 408 -36 103 -41 168 -21 228 64 184 194 334 366 420 116 57 174 71
317 71 70 1 120 4 110 8 -9 4 -66 7 -125 7 -264 2 -494 -120 -633 -336 -19
-29 -36 -53 -40 -53 -22 0 47 188 99 267 109 168 167 202 365 210 129 6 203
-5 310 -48 90 -36 160 -82 230 -150 59 -59 77 -62 31 -6 -64 78 -199 164 -325
207 -75 26 -215 43 -286 35 -32 -4 -58 -4 -58 0 0 11 101 53 170 71 89 24 253
23 345 0 145 -38 262 -110 369 -228 80 -87 87 -78 12 14 -142 172 -355 270
-580 267 -56 -1 -112 -4 -126 -6z m-535 -394 c-61 -117 -75 -177 -88 -374 -21
-316 -8 -411 78 -572 24 -46 40 -83 35 -83 -17 0 -133 137 -167 198 -19 35
-47 96 -61 135 -23 64 -26 88 -26 217 -1 126 2 154 22 214 31 92 60 149 116
222 45 60 124 139 132 132 2 -2 -17 -42 -41 -89z m-2 -687 c137 -283 467 -451
782 -398 49 8 91 13 93 11 7 -7 -91 -58 -161 -83 -65 -23 -87 -26 -222 -26
-189 -1 -240 12 -318 84 -81 74 -152 188 -192 305 -17 51 -36 185 -26 185 3
-1 23 -35 44 -78z"/>
<path d="M2332 2184 c-32 -22 -30 -78 4 -100 51 -34 114 18 93 75 -17 44 -56
54 -97 25z"/>
<path d="M2504 2078 c-44 -75 -58 -88 -98 -88 -21 0 -37 9 -55 31 l-26 31
-100 -12 c-55 -7 -107 -16 -115 -20 -20 -11 -84 -165 -76 -185 10 -26 25 -16
55 38 49 88 59 97 96 97 46 0 45 -14 -5 -96 -66 -109 -53 -134 70 -134 50 0
72 -4 76 -13 3 -8 -16 -48 -41 -91 -25 -42 -45 -84 -45 -94 0 -26 16 -46 32
-39 15 5 146 223 155 257 6 24 -28 47 -83 56 -67 10 -72 18 -48 61 21 37 24
38 102 48 43 6 86 15 94 22 21 18 81 161 74 178 -10 27 -24 16 -62 -47z"/>
<path d="M2102 1738 c-10 -13 -130 -214 -257 -431 -37 -65 -73 -116 -79 -114
-6 2 -41 52 -77 111 -36 59 -72 112 -80 117 -8 5 -62 9 -120 9 -73 0 -110 4
-116 13 -6 6 -23 59 -37 117 -15 58 -32 122 -37 143 -8 30 -14 37 -35 37 -18
0 -27 -8 -35 -27 -8 -23 -4 -52 22 -153 18 -69 38 -137 46 -152 21 -44 61 -58
160 -58 48 -1 100 -6 116 -13 19 -8 47 -45 90 -117 73 -122 101 -141 141 -100
12 14 65 97 117 185 51 88 126 216 166 284 58 100 70 127 62 142 -11 22 -32
25 -47 7z"/>
<path d="M1173 1416 c-127 -144 -80 -365 97 -457 66 -35 185 -33 256 3 58 30
117 91 139 145 14 32 14 39 1 51 -21 21 -42 9 -65 -36 -30 -59 -94 -109 -156
-123 -216 -48 -372 215 -223 377 42 46 47 77 12 82 -15 2 -34 -11 -61 -42z"/>
<path d="M2396 1425 c-17 -17 -33 -122 -20 -135 5 -5 50 -10 99 -12 l90 -3 3
54 c2 30 1 65 -2 77 -7 28 -52 40 -75 20 -14 -13 -19 -13 -35 0 -25 18 -41 18
-60 -1z m54 -70 c0 -36 -5 -41 -29 -26 -18 11 -6 61 14 61 10 0 15 -11 15 -35z
m83 22 c3 -7 3 -25 0 -39 -7 -36 -43 -27 -43 11 0 15 3 31 7 34 11 11 31 8 36
-6z"/>
<path d="M102 1420 c-45 -4 -85 -10 -88 -12 -3 -3 -2 -18 2 -33 l7 -27 86 6
c188 14 192 15 189 45 -3 24 -6 26 -58 27 -30 1 -92 -2 -138 -6z"/>
<path d="M165 1280 c-129 -36 -130 -36 -128 -64 1 -16 4 -30 6 -32 2 -2 27 3
56 12 29 8 56 13 59 9 7 -7 33 -88 29 -91 -1 0 -27 -8 -57 -16 -49 -13 -55
-17 -52 -39 2 -13 7 -27 10 -30 4 -4 67 9 139 29 132 35 133 35 126 61 -8 36
-7 36 -61 24 -26 -6 -48 -10 -49 -9 -2 1 -9 23 -17 49 l-14 46 53 12 c52 12
53 12 44 42 -5 16 -10 31 -11 32 -2 1 -61 -15 -133 -35z"/>
<path d="M2350 1221 c0 -16 15 -23 92 -40 73 -17 93 -19 100 -9 15 24 2 32
-78 50 -102 22 -114 22 -114 -1z"/>
<path d="M2337 1132 c-15 -17 -47 -93 -47 -113 0 -10 49 -24 68 -20 8 1 19 -4
25 -12 15 -18 79 -40 87 -30 13 15 40 94 40 116 0 13 -5 28 -12 35 -15 15 -61
15 -76 0 -9 -9 -12 -8 -12 5 0 15 -28 37 -48 37 -5 0 -16 -8 -25 -18z m48 -42
c7 -11 -4 -60 -14 -60 -3 0 -12 4 -20 9 -12 8 -13 14 -3 35 12 27 26 33 37 16z
m81 -23 c3 -8 0 -25 -5 -39 -7 -20 -15 -25 -30 -21 -24 6 -25 13 -9 48 12 27
35 33 44 12z"/>
<path d="M253 982 c-62 -37 -113 -71 -113 -77 1 -24 87 -151 112 -165 25 -13
31 -13 55 0 16 8 35 29 43 47 12 24 21 31 43 31 36 -1 67 28 67 64 0 29 -74
169 -88 167 -4 0 -58 -31 -119 -67z m132 -52 c31 -70 -17 -84 -55 -17 -14 24
-13 28 5 41 28 22 30 21 50 -24z m-89 -61 c17 -40 17 -42 0 -54 -24 -18 -40
-10 -62 31 -19 35 -19 36 0 50 31 22 42 17 62 -27z"/>
<path d="M2318 913 c-9 -10 -21 -28 -27 -41 -11 -21 -13 -22 -43 -6 -30 15
-32 15 -45 -1 -11 -17 -4 -23 73 -67 47 -27 87 -48 89 -46 21 26 55 101 55
121 0 48 -71 75 -102 40z m57 -42 c6 -10 -14 -61 -25 -61 -3 0 -14 6 -23 13
-16 11 -16 14 -2 35 17 23 40 29 50 13z"/>
<path d="M2121 758 l-42 -52 51 -48 c42 -39 51 -53 48 -73 -8 -39 17 -52 38
-21 22 35 6 75 -48 118 l-40 31 21 20 20 20 57 -46 c62 -51 66 -53 83 -33 9
10 -4 26 -63 75 -41 33 -76 61 -78 61 -3 0 -24 -23 -47 -52z"/>
<path d="M500 742 c-30 -15 -88 -42 -129 -61 l-73 -34 25 -24 c21 -22 28 -23
47 -13 20 11 26 8 58 -23 33 -33 35 -38 23 -63 -10 -24 -9 -30 11 -51 l23 -24
62 132 c35 73 63 137 63 144 0 14 -32 45 -46 44 -5 0 -34 -13 -64 -27z m30
-57 c0 -8 -40 -85 -43 -85 -2 0 -14 11 -26 24 l-23 24 38 21 c40 21 54 25 54
16z"/>
<path d="M1812 600 c-83 -54 -91 -62 -82 -80 13 -25 17 -25 57 -1 l32 20 57
-92 c31 -51 58 -93 59 -95 5 -5 55 21 55 29 0 5 -25 47 -55 94 -30 46 -55 89
-55 95 0 5 8 14 18 19 43 25 45 28 33 50 -7 11 -15 21 -19 21 -4 0 -49 -27
-100 -60z"/>
<path d="M645 567 c-55 -58 -74 -120 -51 -168 35 -73 145 -110 195 -65 26 24
26 32 0 47 -16 8 -27 8 -44 -1 -31 -16 -54 -10 -78 22 -17 23 -18 31 -8 59 16
47 59 89 91 89 31 0 60 -28 60 -58 0 -22 37 -55 52 -46 4 3 8 22 8 43 0 68
-62 121 -141 121 -37 0 -48 -6 -84 -43z"/>
<path d="M930 508 c0 -3 -15 -63 -34 -136 -29 -110 -32 -132 -19 -136 41 -16
48 -8 73 89 13 53 28 101 31 107 5 8 20 8 53 -2 25 -7 46 -14 46 -17 0 -2 -12
-51 -26 -109 -15 -57 -25 -106 -23 -108 2 -2 16 -6 30 -9 26 -7 27 -6 57 111
45 172 50 153 -47 179 -108 28 -141 36 -141 31z"/>
<path d="M1567 490 c-33 -10 -61 -21 -64 -23 -2 -3 14 -64 37 -137 41 -131 42
-132 68 -125 37 9 37 9 23 56 -14 47 -11 52 40 68 58 18 83 52 76 101 -11 82
-59 98 -180 60z m113 -74 c0 -18 -9 -28 -37 -39 -43 -17 -50 -14 -59 29 -5 28
-3 31 28 41 41 12 68 0 68 -31z"/>
<path d="M1262 443 c-80 -39 -93 -180 -23 -247 58 -56 169 -42 211 26 25 42
26 120 2 168 -31 63 -120 88 -190 53z m121 -65 c22 -26 23 -105 1 -136 -20
-28 -74 -30 -98 -3 -22 25 -31 88 -17 124 19 49 78 56 114 15z"/>
</g>
</svg>
